<svg width="329" height="226" viewBox="0 0 329 226" fill="none" xmlns="http://www.w3.org/2000/svg">
<rect width="328.79" height="225.295" rx="20.0653" fill="#527A92"/>
<path d="M200.485 35.123V69.515" stroke="white" stroke-width="4.5856" stroke-linecap="round" stroke-linejoin="round"/>
<path d="M184.309 35.123V94.2263" stroke="white" stroke-width="4.5856" stroke-linecap="round" stroke-linejoin="round"/>
<path d="M200.276 134.773L200.276 178.591" stroke="white" stroke-width="4.5856" stroke-linecap="round" stroke-linejoin="round"/>
<path d="M183.462 127.6V183.009" stroke="white" stroke-width="4.5856" stroke-linecap="round" stroke-linejoin="round"/>
<path d="M151.445 134.224L123.167 162.501L94.8892 190.779" stroke="white" stroke-width="4.5856" stroke-linecap="round" stroke-linejoin="round"/>
<path d="M133.739 127.727L108.965 152.502L84.1896 177.276H53.0625" stroke="white" stroke-width="4.5856" stroke-linecap="round" stroke-linejoin="round"/>
<path d="M265.575 27.9902L199.338 94.2266" stroke="white" stroke-width="4.5856" stroke-linecap="round" stroke-linejoin="round"/>
<path d="M275.765 41.7471L223.031 94.4814" stroke="white" stroke-width="4.5856" stroke-linecap="round" stroke-linejoin="round"/>
<path d="M204.997 112.712L275.743 183.458" stroke="white" stroke-width="4.5856" stroke-linecap="round" stroke-linejoin="round"/>
<path d="M76.5469 110.914H151.157H113.852" stroke="white" stroke-width="4.5856" stroke-linecap="round" stroke-linejoin="round"/>
<path d="M55.7843 111.041V78.0497L98.838 34.9961M98.838 34.9961H149.152M98.838 34.9961H75.1457L37.5693 73.4641V111.041" stroke="white" stroke-width="4.33084" stroke-linecap="round" stroke-linejoin="round"/>
<circle cx="44.9973" cy="176.895" r="7.00577" stroke="white" stroke-width="4.5856"/>
<circle cx="183.589" cy="190.397" r="7.00577" stroke="white" stroke-width="4.5856"/>
<circle cx="158.96" cy="34.9958" r="7.00577" stroke="white" stroke-width="4.5856"/>
<circle cx="158.96" cy="110.46" r="7.00577" stroke="white" stroke-width="4.5856"/>
<circle cx="282.261" cy="34.9958" r="7.00577" stroke="white" stroke-width="4.5856"/>
<circle cx="281.752" cy="190.397" r="7.00577" stroke="white" stroke-width="4.5856"/>
</svg>
