<svg width="485" height="525" viewBox="0 0 485 525" fill="none" xmlns="http://www.w3.org/2000/svg">
<path d="M331.897 336.882C329.244 339.109 325.762 342.351 322.695 343.869C320.566 344.927 315.141 346.336 312.761 346.445C302.86 346.903 280.93 331.61 275.669 323.39C274.435 321.469 270.069 311.71 270.135 309.833C270.145 309.374 271.63 306.34 271.914 306.154C272.58 305.729 272.842 306.329 273.191 306.744C275.92 310.029 277.175 315.542 280.199 319.231C288.55 329.416 294.523 317.596 307.938 315.511C334.213 311.417 355.388 296.996 373.836 280.415C385.363 270.055 398.309 265.482 408.057 253.016C407.577 255.614 405.612 258.135 403.996 260.176C395.864 270.547 388.058 273.441 378.67 282.927C363.868 297.881 358.801 306.744 333.37 323.39C329.506 317.236 333.119 335.856 331.886 336.882H331.897Z" fill="#527A92"/>
<path d="M466.775 315.93C464.436 321.301 456.845 321.681 452.55 325.788C438.656 339.119 429.216 362.808 406.724 366.079C381.182 369.785 355.615 351.966 329.697 349.915C312.742 348.572 293.343 351.951 278.736 341.715C278.573 340.961 278.27 339.389 278.119 338.889C302.732 334.011 330.101 335.292 354.394 342.211C375.981 348.363 404.173 364.957 424.226 347.767C433.534 339.796 437.785 328.152 446.426 320.374C451.872 315.479 457.969 314.407 465.366 315.207C465.832 315.446 466.298 315.686 466.765 315.925L466.775 315.93Z" fill="#527A92"/>
<path d="M465.377 315.213C457.991 314.419 451.884 315.485 446.438 320.381C437.796 328.158 433.54 339.812 424.238 347.773C404.174 364.958 375.993 348.369 354.406 342.217C330.113 335.298 302.743 334.017 278.13 338.896C274.995 328.221 266.785 318.992 260.783 309.406C260.313 308.668 259.105 307.191 259.541 306.335C261.857 307.398 267.733 308.809 270.299 308.921C272.495 313.053 272.833 317.797 276.419 321.287C286.564 331.173 310.395 328.837 324.188 329.912C344.802 331.528 364.502 338.638 384.777 342.205C400.982 345.05 415.236 346.535 428.195 335.481C438.601 326.609 448.142 306.735 465.372 315.199L465.377 315.213Z" fill="#B75D20"/>
<path d="M4.06946 258.169C13.7846 259.184 24.253 268.08 29.6018 275.863C42.4825 294.595 42.6026 315.859 63.1899 330.203C85.9059 346.031 126.186 346.304 151.609 337.625L147.199 341.861C141.632 345.299 135.693 352.973 130.268 356.019C123.14 360.014 104.561 357.733 96.287 356.706C63.3755 352.624 47.4165 345.376 33.4333 314.331C27.7788 301.778 24.384 284.76 13.8283 275.449C10.1933 272.25 4.48424 269.718 1.92992 265.646C0.969324 264.107 -0.569826 261.007 0.216119 259.282C0.478101 258.714 1.27501 258.474 1.49333 258.18C2.33385 258.234 3.23986 258.092 4.06946 258.18V258.169Z" fill="#527A92"/>
<path d="M1.49402 258.168C6.17694 251.902 13.2832 252.907 20.0838 255.21C50.2007 265.416 60.9857 305.248 92.216 312.955C104.944 316.099 121.591 312.835 133.675 308.108C189.455 286.309 131.863 221.862 116.1 191.232C86.3542 133.443 94.7485 70.7422 147.025 30.1132C199.912 -10.9742 274.457 -10.0355 325.816 33.0496C364.382 65.4043 389.467 120.89 371.27 170.623C376.008 167.064 382.404 168.942 386.683 172.304C391.978 176.463 394.445 183.613 396.65 189.747C391.137 186.538 384.129 182.161 378.616 179.443C379.042 176.124 376.226 175.338 374.938 178.34C374.119 178.471 373.388 179.41 371.99 179.072C371.794 179.028 370.026 177.729 369.764 177.434C367.777 175.24 369.447 174.443 369.687 172.555C369.742 172.129 369.414 171.791 369.414 171.703C370.244 163.713 364.775 161.377 364.262 155.155C364.044 152.491 364.426 149.577 364.262 146.881C361.817 106.95 314.169 81.8328 279.642 102.18C272.765 98.5668 275.559 90.6965 274.457 84.3761C274.097 82.3349 272.82 77.6301 271.28 81.8546C269.894 85.6533 270.156 100.204 270.898 104.483C271.095 105.597 271.957 106.514 271.914 107.692C249.831 126.064 246.054 160.897 266.03 182.368C267.034 186.003 269.425 189.42 271.466 192.564C275.276 198.436 279.653 204.036 283.757 209.702C284.183 210.291 284.696 211.503 285.526 211.426C286.606 215.978 292.927 221 297.304 222.462C299.793 225.682 304.738 227.702 308.635 228.608C318.83 230.966 334.232 225.901 340.651 217.43C342.79 214.614 343.838 210.706 346.043 208.108C347.735 206.121 352.233 201.973 354.318 200.194C355.235 199.408 356.414 198.404 357.636 198.174C347.659 217.113 334.986 227.313 318.667 240.408C309.528 247.743 294.247 260.674 294.247 275.377C294.247 292.861 311.912 292.852 318.667 288.887C333.174 280.373 352.353 274.334 364.262 263.058C379.151 248.944 399.739 247.296 393.517 219.875C391.956 212.976 386.083 207.125 385.221 200.019C389.958 202.934 399.499 209.636 404.356 211.055C411.724 220.192 414.431 232.319 411.899 243.803C411.157 247.176 410.131 250.309 408.035 252.994C398.287 265.46 385.341 270.034 373.813 280.393C355.366 296.974 352.046 300.014 325.816 314.08C312.739 323.369 288.528 329.405 280.177 319.21C277.153 315.52 279.066 317.955 276.348 314.669C276.009 314.255 275.737 313.654 275.071 314.08C274.787 314.266 275.082 319.424 275.071 319.882C275.016 321.76 278.954 324.319 280.177 326.24C285.438 334.46 296.812 337.366 307.938 343.724C311.117 345.314 314.475 348.115 315.206 348.563C324.626 354.283 335.662 358.682 343.282 366.661C343.631 367.032 344.635 368.288 345.126 368.866C350.879 375.765 356.152 385.251 359.645 393.525C367.362 411.788 369.327 430.279 388.659 440.66C397.588 445.463 412.838 449.142 422.935 448.683C427.618 448.476 440.106 446.195 443.162 450.539C446.994 455.997 435.15 458.355 431.591 458.246C411.244 457.634 389.587 459.796 371.008 449.48C346.611 435.934 348.598 410.783 334.986 389.858C323.644 372.436 310.054 368.255 294.247 357.023C283.19 349.163 272.252 340.496 261.423 332.451C254.132 327.037 247.113 321.186 239.723 315.891C238.915 315.771 239.286 316.022 239.166 316.426C238.904 317.267 238.795 318.315 238.806 319.199C238.915 330.279 248.412 346.685 254.47 355.953C256.751 359.446 260.605 363.212 262.351 366.279C272.132 383.515 280.854 402.345 282.906 422.42C284.751 440.442 278.845 454.229 268.017 468.135C267.427 468.889 266.641 470.209 265.659 470.384C269.567 461.608 274.14 452.733 274.85 442.974C275.974 427.637 261.664 404.529 251.501 393.493C242.375 383.592 231.099 375.929 222.061 365.908C216.33 359.555 208.951 349.36 205.621 341.511C204.388 338.586 204.104 335.093 201.637 332.8V338.498C201.637 339.11 201.986 340.54 202.008 341.62C202.03 342.472 202.041 343.345 202.008 344.196C201.277 344.196 200.993 344.698 200.534 345.113C188.996 355.582 179.991 360.014 167.459 368.331C151.73 378.767 145.617 393.427 141.84 411.515C139.274 423.817 141.84 437.08 135.421 448.138C125.073 465.985 107.509 472.622 84.3894 480.252C78.8332 482.086 71.3121 486.092 70.286 492.456C69.8384 492.041 69.2381 492.38 68.7359 490.884C66.6728 484.706 74.7942 479.761 79.237 477.316C96.1676 467.994 118.829 461.63 117.759 437.451C117.137 423.173 112.934 413.207 115.227 397.793C117.388 383.264 123.261 368.768 130.247 355.986C136.153 349.272 141.61 345.277 147.178 341.828L151.588 337.592C158.541 335.213 167.263 325.443 171.542 319.461C172.415 318.227 178.408 309.298 177.709 308.534C176.891 308.338 176.891 309.014 176.53 309.375C174.697 311.241 173.234 313.326 171.28 315.16C147.287 337.658 94.2355 341.664 67.3605 322.67C50.6155 310.837 46.7513 291.483 35.9882 275.306C28.7401 264.412 18.1735 254.915 4.0483 258.135C3.2187 258.048 2.31269 258.19 1.47217 258.135L1.49402 258.168ZM161.543 101.449C162.231 102.191 169.926 103.872 171.465 104.221C181.486 106.459 196.605 109.657 206.615 110.28C210.719 110.531 214.638 108.566 215.227 104.189C215.817 99.7676 216.199 85.3695 214.714 81.5926C214.518 81.0905 213.852 79.977 213.241 80.1299C208.623 86.5484 215.085 99.1672 205.687 102.376C202.216 103.555 193.461 101.787 189.324 101.47C181.301 100.859 171.083 99.6802 163.202 100.368C162.798 100.401 160.855 100.717 161.554 101.47L161.543 101.449ZM153.814 163.254C172.568 188.328 210.108 181.801 221.788 153.779C222.432 152.229 224.418 147.339 224.451 145.964C229.167 141.434 235.695 133.825 223.905 134.196C214.267 134.502 204.169 136.401 194.465 136.762C185.645 137.089 173.463 135.572 164.774 133.716C158.792 132.439 147.058 127.177 141.567 128.389C139.318 128.88 139.678 131.446 139.875 133.236C140.606 139.829 147.025 157.622 151.773 162.163C152.374 162.73 152.952 163.178 153.814 163.254ZM177.917 307.825V308.196C178.157 308.076 178.157 307.956 177.917 307.825Z" fill="#EC8A3B"/>
<path d="M238.806 319.231C239.723 319.024 239.559 319.712 239.843 320.203C240.695 321.676 241.579 323.106 242.561 324.493C245.792 329.067 256.477 341.589 260.254 344.121C262.241 345.453 261.675 346.499 262.537 346.816C273.082 355.549 286.836 359.5 298.789 366.115C311.877 373.363 329.015 386.67 335.521 400.391C343.359 416.929 340.979 438.706 356.949 450.702C374.469 463.867 404.357 463.376 424.988 459.741C424.748 460.45 424.093 460.461 423.525 460.669C393.67 471.792 359.645 474.958 334.844 451.467C317.292 434.853 323.928 418.042 312.783 400.326C302.162 383.439 286.039 381.015 270.724 370.285L262.374 366.312C260.627 363.244 256.785 359.478 254.492 355.985C248.423 346.707 238.937 330.311 238.828 319.231H238.806Z" fill="#527A92"/>
<path d="M236.23 388.026C238.97 393.462 241.906 398.854 244.996 404.094C253.434 418.404 262.854 427.574 255.278 445.509C253.412 449.93 247.07 457.287 242.867 459.59C241.546 460.311 240.083 460.42 239.177 460.867C241.339 451.556 248.478 442.125 247.648 432.344C247.288 428.098 243.402 422.323 241.164 418.59C235.27 408.755 228.163 397.522 221.439 388.277C216.112 380.941 210.054 374.195 203.679 367.776C203.253 367.362 202.784 367.416 202.249 367.449C199.149 367.635 193.44 369.054 190.231 369.818C174.293 373.595 165.877 389.914 164.043 394.04C158.673 406.157 153.619 420.227 150.977 433.217C146.916 453.204 149.471 468.192 127.137 476.706C113.514 481.891 98.2968 483.463 84.3463 487.622L75.439 491.77C78.8011 488.015 79.9691 486.236 85.0122 484.238C95.939 479.894 107.968 479.261 119.354 474.065C143.423 463.083 141.054 450.323 145.148 427.388C146.687 418.808 149.099 407.783 151.959 399.618C158.727 380.275 174.337 372.274 189.456 360.594C192.665 358.116 200.601 351.621 201.801 347.92C202.194 346.709 201.965 345.497 202.009 344.264C202.042 343.412 202.031 342.539 202.009 341.688C204.094 344.078 202.806 347.189 203.461 349.612C207.227 363.334 225.685 378.714 236.219 388.036L236.23 388.026Z" fill="#527A92"/>
<path d="M424.977 459.753C427.195 459.362 429.489 459.22 431.579 458.291C411.243 457.68 389.576 459.84 370.998 449.525C346.601 435.979 348.588 410.839 334.975 389.903C323.645 372.481 310.043 368.3 294.237 357.067C283.169 349.208 272.242 340.53 261.413 332.496C254.121 327.082 247.102 321.231 239.712 315.936C238.905 315.816 239.287 316.067 239.156 316.471C238.894 317.312 238.795 318.349 238.795 319.244C239.712 319.036 239.549 319.724 239.832 320.215C240.684 321.689 241.568 323.119 242.55 324.505C245.554 330.933 256.834 342.142 262.241 346.905C267.295 352.789 286.825 359.513 298.778 366.128C311.866 373.376 329.004 386.693 335.51 400.404C343.348 416.93 340.968 438.718 356.938 450.715C374.458 463.88 404.346 463.377 424.977 459.753Z" fill="#B75D20"/>
<path d="M236.23 388.025C250.879 400.993 268.978 423.097 262.461 444.231C259.917 452.483 249.46 466.39 243.041 472.274C235.782 478.921 222.072 483.964 213.656 490.35C206.255 495.972 196.823 509.049 195.754 518.426C195.612 519.67 195.361 520.969 196.856 521.188C195.372 523.633 193.44 524.419 190.514 524.037C183.812 523.142 187.239 516.09 188.964 512.007C192.894 502.674 200.633 489.379 207.521 482C215.042 473.944 229.167 465.691 239.177 460.855C240.094 460.419 241.546 460.31 242.867 459.578C247.058 457.275 253.411 449.929 255.278 445.497C262.854 427.551 253.433 418.393 244.995 404.082C241.906 398.842 238.97 393.45 236.23 388.014V388.025Z" fill="#EC8A3B"/>
<path d="M201.812 339.853C202.15 341.49 202.598 345.54 201.812 347.909C200.229 352.712 192.675 358.104 189.466 360.582C174.336 372.262 158.737 380.263 151.97 399.606C149.11 407.771 146.697 418.796 145.158 427.376C141.065 450.3 143.422 463.071 119.364 474.053C107.979 479.249 95.9492 479.882 85.0224 484.226C79.9793 486.224 78.8113 488.003 75.4492 491.758C74.6305 492.675 73.5389 494.214 72.2945 494.345C71.9889 494.378 70.7772 492.937 70.2969 492.49C71.323 486.126 79.0842 482.753 84.4003 480.286C101.877 472.175 121.209 469.545 131.557 451.708C137.965 440.661 139.285 423.851 141.851 411.548C145.617 393.461 151.73 378.801 167.47 368.365C180.002 360.058 189.007 355.626 200.545 345.147C201.004 344.732 201.561 342.331 201.823 339.842L201.812 339.853Z" fill="#B75D20"/>
<path d="M378.617 179.443C384.129 182.15 391.126 186.527 396.65 189.747C401.453 192.542 407.489 195.718 411.856 199.015C413.144 199.986 415.141 201.362 415.622 202.977C417.652 209.822 409.891 212.703 404.378 211.088C399.521 209.669 389.991 202.966 385.243 200.052C380.145 196.919 375.003 193.732 369.96 190.5C369.218 190.02 367.602 188.372 367.209 188.285L371.991 179.093C373.377 179.432 374.119 178.493 374.938 178.362C375.811 178.22 377.743 179.039 378.617 179.465V179.443Z" fill="#527A92"/>
<path d="M265.67 470.418C262.428 477.699 248.27 485.711 241.011 488.625C227.989 493.854 213.929 494.52 205.033 506.724C201.736 511.243 199.706 516.537 196.867 521.187C195.372 520.969 195.623 519.659 195.765 518.426C196.846 509.049 206.277 495.972 213.667 490.35C222.072 483.964 235.794 478.921 243.053 472.273C249.471 466.401 259.929 452.483 262.472 444.23C268.989 423.086 250.89 400.982 236.241 388.024C225.696 378.702 207.238 363.322 203.482 349.6C202.817 347.177 203.286 348.17 202.031 341.676C202.009 340.584 201.66 339.154 201.66 338.554V332.855C204.116 335.148 204.399 338.641 205.644 341.566C208.973 349.426 216.341 359.61 222.083 365.963C231.132 375.984 242.409 383.647 251.523 393.548C261.686 404.573 275.997 427.682 274.872 443.03C274.163 452.799 269.589 461.663 265.681 470.439L265.67 470.418Z" fill="#B75D20"/>
<path d="M364.273 155.166L362.101 165.689C362.046 166.246 361.937 166.901 362.123 167.425C362.352 168.091 368.334 171.147 369.425 171.715C369.425 171.791 369.753 172.14 369.698 172.566C369.458 174.455 367.788 175.241 369.775 177.446C370.037 177.729 371.805 179.028 372.002 179.083L367.22 188.274C365.256 187.805 363.007 189.202 361.697 189.006C361.271 188.94 358.531 187.445 357.909 187.095C356.796 186.473 351.37 182.412 350.912 182.445C349.591 182.554 346.469 186.735 345.389 187.772C340.204 192.739 335.084 196.461 328.229 198.939C326.952 199.397 326.218 199.877 323.448 200.413C320.678 200.948 317.411 201.33 315.534 201.515C308.788 202.17 300.95 201.417 294.379 199.681C292.829 199.266 290.362 198.437 288.855 197.847C281.225 194.813 271.63 188.405 266.041 182.401C246.076 160.93 249.853 126.097 271.925 107.726C273.922 106.067 277.426 103.512 279.653 102.213C314.18 81.866 361.828 106.983 364.273 146.914C364.437 149.61 364.055 152.525 364.273 155.188V155.166ZM297.675 102.191C272.187 106.994 253.859 131.282 259.218 157.382C260.408 163.168 263.039 168.003 265.67 173.188C265.113 173.505 263.814 174.149 263.814 174.837C263.814 176.845 272.776 184.617 274.752 186.004C294.28 199.736 324.037 199.125 342.201 183.318C380.723 149.796 345.378 93.2185 297.675 102.202V102.191Z" fill="#1F5781"/>
<path d="M4.0708 258.169C18.196 254.959 28.7626 264.445 36.0107 275.339C46.7738 291.517 50.6271 310.86 67.383 322.703C94.258 341.697 147.309 337.691 171.302 315.193C173.256 313.359 174.73 311.274 176.553 309.408C176.913 309.037 176.913 308.371 177.732 308.567C178.43 309.342 172.438 318.272 171.564 319.494C167.296 325.465 158.574 335.246 151.61 337.625C126.187 346.304 85.9073 346.031 63.1913 330.203C42.6148 315.859 42.4948 294.595 29.6031 275.863C24.2543 268.08 13.775 259.184 4.0708 258.169Z" fill="#B75D20"/>
<path d="M156.02 141.183C155.627 154.948 163.399 167.544 177.077 171.081C195.022 175.731 208.864 163.069 208.634 145.232C212.106 144.839 221.646 142.263 224.222 144.839C224.615 145.232 224.473 145.494 224.462 145.975C224.419 147.35 222.443 152.24 221.799 153.79C210.119 181.812 172.579 188.339 153.826 163.265C152.636 161.683 151.053 159.03 150.082 157.262C146.73 151.149 144.493 143.988 143.15 137.155C146.643 136.925 149.918 138.737 153.182 139.818C154.011 140.091 155.594 141.084 156.031 141.193L156.02 141.183Z" fill="#FEFDFD"/>
<path d="M224.451 145.965C224.462 145.495 224.604 145.222 224.211 144.829C221.646 142.253 212.105 144.829 208.623 145.222C207.04 145.408 204.77 145.877 203.471 145.954C202.346 146.019 199.355 145.954 197.947 145.954C186.802 145.91 166.695 143.923 156.008 141.172C155.561 141.063 153.989 140.07 153.159 139.797C149.895 138.716 146.632 136.904 143.128 137.134C144.47 143.967 146.697 151.128 150.059 157.241C151.031 159.009 152.613 161.662 153.803 163.244C152.941 163.179 152.362 162.731 151.762 162.153C147.014 157.601 140.584 139.808 139.864 133.226C139.667 131.435 139.307 128.87 141.556 128.379C147.057 127.167 158.781 132.429 164.763 133.706C173.441 135.562 185.634 137.079 194.454 136.752C204.158 136.391 214.256 134.492 223.894 134.186C235.694 133.815 229.156 141.424 224.44 145.954L224.451 145.965Z" fill="#B75D20"/>
<path d="M161.543 101.449C160.844 100.695 162.787 100.379 163.191 100.346C171.072 99.6694 181.29 100.837 189.313 101.449C193.45 101.765 202.204 103.545 205.676 102.355C215.074 99.1454 208.623 86.5376 213.23 80.1081C213.841 79.9662 214.507 81.0796 214.703 81.5708C216.188 85.3477 215.806 99.7458 215.216 104.167C214.627 108.555 210.708 110.52 206.604 110.258C196.594 109.636 181.475 106.437 171.454 104.199C169.904 103.85 162.209 102.169 161.532 101.427L161.543 101.449Z" fill="#B75D20"/>
<path d="M223.24 200.839C226.417 199.879 225.98 205.02 226.7 206.81C229.713 214.288 245.672 216.514 251.818 211.755C254.296 209.834 257.112 201.396 259.306 200.817C262.221 200.042 261.708 207.061 260.845 209.004C256.031 219.735 233.337 222.922 225.423 213.251C223.742 211.198 219.485 201.974 223.262 200.839H223.24Z" fill="#EC8A3B"/>
<path d="M279.642 102.192C277.415 103.502 273.911 106.045 271.913 107.704C271.957 106.514 271.094 105.608 270.898 104.495C270.156 100.227 269.894 85.665 271.28 81.8663C272.819 77.6309 274.096 82.3466 274.456 84.3878C275.559 90.7081 272.775 98.5785 279.642 102.192Z" fill="#B75D20"/>
<path d="M369.425 171.716C368.334 171.149 362.352 168.092 362.123 167.427C361.948 166.892 362.046 166.248 362.101 165.691L364.273 155.168C364.786 161.39 370.255 163.726 369.425 171.716Z" fill="#B75D20"/>
<path d="M177.917 307.824C178.157 307.944 178.157 308.064 177.917 308.195V307.824Z" fill="#B75D20"/>
<path d="M265.67 173.19C266.314 172.83 267.482 173.408 267.537 171.553C266.554 168.813 265.91 166.106 265.31 163.268C268.661 164.326 269.338 171.76 273.409 170.625C275.909 174.675 280.188 179.161 284.194 181.726C284.937 182.196 286.083 182.272 286.29 182.392C310.436 197.849 346.6 182.327 349.941 152.963C350.29 149.863 350.214 148.629 349.941 145.606C349.482 140.606 348.871 138.401 346.993 133.838C345.422 130.018 344.406 127.955 341.841 124.647C340.269 122.617 339.047 122.038 337.791 120.597C335.968 118.512 335.968 117.552 333.01 115.816C333.796 115.587 332.574 114.921 332.388 114.779C321.963 106.909 310.873 103.71 297.686 105.883V102.204C345.389 93.2202 380.734 149.797 342.212 183.32C324.048 199.126 294.291 199.738 274.763 186.005C272.787 184.619 263.825 176.858 263.825 174.838C263.825 174.162 265.124 173.507 265.681 173.19H265.67Z" fill="#527A92"/>
<path d="M288.845 197.837L288.842 197.84C290.349 198.441 292.799 199.268 294.356 199.671L294.367 199.682C300.939 201.417 308.777 202.17 315.523 201.515C316.181 201.45 317.175 201.248 318.249 201.03C320.946 200.543 326.793 199.393 328.602 198.685C335.457 196.207 340.203 192.739 345.377 187.772C345.68 187.481 346.145 186.941 346.686 186.313C348.07 184.707 349.951 182.524 350.9 182.445C351.19 182.418 353.364 183.953 355.247 185.281L355.247 185.281C356.417 186.107 357.475 186.853 357.897 187.095C358.53 187.456 361.27 188.94 361.685 189.006H361.696C360.746 192.237 359.196 195.261 357.646 198.197C356.445 198.422 355.297 199.395 354.378 200.174L354.328 200.216C352.243 201.985 347.735 206.144 346.054 208.13C344.892 209.5 344.048 211.232 343.198 212.978C342.435 214.544 341.668 216.12 340.661 217.453C334.232 225.912 318.84 230.977 308.645 228.63C293.633 226.519 283.351 211.81 280.087 204.719C277.128 200.728 274.156 196.72 271.478 192.586C271.273 192.271 271.064 191.952 270.854 191.632C268.971 188.755 266.945 185.661 266.042 182.391C271.63 188.394 281.226 194.802 288.856 197.837H288.845Z" fill="#B75D20"/>
<path d="M297.676 102.191V105.869C268.225 110.705 259.645 136.619 265.299 163.254C265.9 166.092 266.544 168.81 267.526 171.539C267.482 173.395 266.303 172.816 265.659 173.177C263.029 167.992 260.398 163.156 259.208 157.37C253.848 131.271 272.187 106.983 297.665 102.18L297.676 102.191Z" fill="#709FB7"/>
<path d="M197.969 145.965C195.393 153.65 206.069 153.65 203.493 145.965C204.792 145.888 207.062 145.408 208.645 145.233C208.863 163.081 195.022 175.732 177.087 171.082C163.421 167.545 155.648 154.949 156.031 141.184C166.717 143.934 186.835 145.932 197.969 145.965ZM194.182 154.501C189.586 155.516 191.802 164.413 196.594 162.066C200.469 160.166 198.384 153.573 194.182 154.501Z" fill="#262626"/>
<path d="M203.483 145.965C206.059 153.65 195.383 153.65 197.959 145.965C199.356 145.965 202.347 146.03 203.483 145.965Z" fill="#FEFDFD"/>
<path d="M333 115.804C335.958 117.539 335.958 118.5 337.781 120.585C335.75 120.705 334.615 123.172 333.371 124.46C329.31 128.684 324.856 132.494 320.85 136.773L340.368 134.404C341.427 131.228 338.785 127.309 341.82 124.635C344.385 127.953 345.4 130.005 346.972 133.826C345.935 134.372 340.935 133.968 340.717 134.197C340.619 134.295 340.772 136.205 340.63 136.871C339.964 140.026 333.316 143.868 331.515 146.707C330.467 146.805 329.386 147.34 328.207 147.438C325.904 147.645 323.535 147.853 321.221 147.809C317.619 147.744 313.176 147.361 309.443 147.078C309.454 146.346 309.891 146.041 310.371 145.615C312.412 143.759 314.715 142.089 316.811 140.277L319.748 137.144C317.324 136.893 314.966 137.537 312.565 137.526C310.753 137.515 308.253 136.915 306.507 136.773C311.299 133.837 317.084 125.486 310.895 121.163C303.614 116.076 283.736 121.403 276.695 126.108C286.836 110.608 307.063 106.667 324.07 112.038C326.57 112.824 330.773 114.516 332.989 115.815L333 115.804Z" fill="#BCAA87"/>
<path d="M273.387 142.286C273.3 151.467 275.527 159.217 281.487 166.192C283.452 168.495 285.57 170.591 288.135 172.229C291.126 174.139 293.036 174.805 296.202 175.754C305.797 178.614 315.785 177.687 323.622 170.984C326.188 168.79 329.157 165.417 330.052 162.142C330.292 162.153 330.543 162.142 330.783 162.142C341.131 162.077 342.889 154.468 342.19 145.594C344.723 145.266 347.375 144.83 349.919 145.594C350.192 148.618 350.268 149.851 349.919 152.951C342.758 175.067 318.383 189.76 295.383 183.745C293.593 183.275 289.248 182.009 287.731 181.278C283.648 179.313 276.542 173.364 273.376 169.871C267.46 163.332 267.285 148.574 268.966 140.441C270.396 140.321 272.514 142.057 273.376 142.275L273.387 142.286Z" fill="#C4E2E6"/>
<path d="M332.999 115.802C330.784 114.503 326.581 112.811 324.081 112.025C307.074 106.655 286.836 110.606 276.706 126.096C275.014 127.231 274.108 129.305 273.027 130.877C273.006 130.91 272.504 130.779 272.285 131.128C270.484 133.966 269.654 137.197 268.989 140.439C267.308 148.572 267.482 163.33 273.399 169.869C273.442 170.087 273.322 170.491 273.399 170.6C269.338 171.735 268.661 164.302 265.299 163.243C259.645 136.608 268.224 110.694 297.676 105.858C310.862 103.697 321.953 106.884 332.377 114.754C332.563 114.896 333.785 115.562 332.999 115.791V115.802Z" fill="#1F5781"/>
<path d="M349.919 152.961C346.578 182.325 310.414 197.847 286.268 182.39C286.552 181.757 287.01 181.31 287.742 181.288C289.259 182.019 293.604 183.285 295.394 183.755C318.394 189.769 342.769 175.066 349.93 152.961H349.919Z" fill="#BCAA87"/>
<path d="M337.78 120.586C339.036 122.016 340.258 122.605 341.83 124.636C338.796 127.31 341.437 131.229 340.378 134.405L320.861 136.774C324.856 132.495 329.321 128.686 333.381 124.461C334.615 123.173 335.75 120.706 337.791 120.586H337.78Z" fill="#D8B692"/>
<path d="M346.971 133.825C348.849 138.388 349.46 140.593 349.918 145.593C347.375 144.829 344.733 145.265 342.19 145.593C341.48 145.691 340.891 145.887 340.345 145.964C338.151 146.28 335.935 146.848 333.719 147.066C333.61 147.066 332.486 146.608 331.514 146.695C333.315 143.857 339.963 140.015 340.629 136.86C340.771 136.194 340.618 134.273 340.716 134.186C340.935 133.967 345.945 134.36 346.971 133.814V133.825Z" fill="#A6957C"/>
<path d="M287.742 181.287C287.011 181.309 286.553 181.756 286.269 182.389C286.072 182.258 284.915 182.193 284.173 181.723C280.156 179.158 275.888 174.672 273.388 170.622C273.312 170.502 273.432 170.098 273.388 169.891C276.554 173.384 283.66 179.333 287.742 181.298V181.287Z" fill="#D8B692"/>
<path d="M194.181 154.499C198.373 153.571 200.469 160.164 196.594 162.064C191.802 164.411 189.586 155.514 194.181 154.499Z" fill="#FEFDFD"/>
<path d="M309.454 147.065C313.176 147.349 317.63 147.731 321.232 147.797C321.374 148.997 320.763 149.969 320.938 151.192C320.992 151.584 322.204 153.964 322.346 154.051C321.647 155.427 319.661 156.049 319.77 157.73C316.386 156.038 313.81 159.116 314.246 162.511L296.213 175.752C293.048 174.814 291.148 174.137 288.146 172.226C285.581 170.589 283.463 168.493 281.499 166.19C282.241 166.277 282.71 165.95 283.311 165.611C286.509 163.854 290.329 160.918 293.386 158.756C298.484 155.154 303.822 151.322 308.352 147.054C308.712 147.087 309.094 147.022 309.454 147.054V147.065Z" fill="#7B879F"/>
<path d="M306.505 136.774C306.025 136.73 305.512 136.818 305.032 136.774C295.098 135.846 284.226 134.34 274.631 131.676C274.042 131.512 273.387 131.501 273.026 130.89C274.107 129.318 275.013 127.244 276.705 126.109C283.735 121.404 303.624 116.088 310.905 121.164C317.094 125.487 311.308 133.837 306.516 136.774H306.505Z" fill="#D8B692"/>
<path d="M306.506 136.774C308.253 136.916 310.752 137.517 312.564 137.528C314.977 137.549 317.324 136.894 319.747 137.145L316.811 140.278C314.715 142.09 312.412 143.75 310.37 145.616C309.89 146.053 309.453 146.358 309.443 147.079C309.082 147.046 308.7 147.112 308.34 147.079C300.175 146.413 291.508 145.114 283.321 143.771C285.384 143.269 287.523 143.269 289.641 142.92C293.975 142.2 299.007 140.518 302.948 138.565C303.744 138.172 305.022 137.877 305.022 136.774C305.502 136.818 306.004 136.731 306.495 136.774H306.506Z" fill="#A6957C"/>
<path d="M331.525 146.706C332.497 146.619 333.621 147.088 333.73 147.077C333.534 149.468 333.414 152.492 332.999 154.806C332.912 155.264 332.421 156.137 332.268 156.64C332.366 155.504 332.06 155.843 331.329 156.258C328.84 157.644 326.45 159.205 323.808 160.318C323.393 160.144 322.509 160.209 321.963 159.947C321.199 159.587 320.708 158.212 319.758 157.742C319.638 156.061 321.636 155.439 322.334 154.063C322.52 154.184 325.238 154.085 325.74 153.976C329.102 153.299 328.393 149.992 328.218 147.438C329.397 147.328 330.477 146.793 331.525 146.706Z" fill="#527A92"/>
<path d="M328.219 147.438C328.393 149.992 329.103 153.299 325.741 153.976C325.228 154.074 322.52 154.184 322.335 154.063C322.204 153.976 320.992 151.596 320.927 151.203C320.752 149.981 321.363 149.009 321.221 147.809C323.536 147.852 325.915 147.645 328.208 147.438H328.219Z" fill="#C4E2E6"/>
<path d="M283.321 143.76C291.508 145.102 300.175 146.401 308.34 147.067C303.81 151.335 298.473 155.167 293.375 158.769C290.318 160.93 286.498 163.867 283.299 165.624C282.699 165.952 282.23 166.279 281.487 166.203C275.538 159.217 273.3 151.466 273.388 142.297C275.986 142.963 280.428 143.29 283.321 143.771V143.76Z" fill="#527A92"/>
<path d="M323.797 160.318C326.209 161.323 327.082 161.989 330.051 162.152C329.156 165.416 326.187 168.8 323.622 170.994C315.784 177.697 305.796 178.624 296.201 175.764L314.234 162.523C314.649 165.733 318.36 167.577 320.871 165.296C322.487 163.833 321.864 161.901 321.963 159.947C322.508 160.209 323.382 160.144 323.807 160.318H323.797Z" fill="#527A92"/>
<path d="M273.027 130.891C273.387 131.502 274.042 131.513 274.632 131.677C284.227 134.351 295.11 135.846 305.033 136.774C305.033 137.877 303.755 138.161 302.959 138.565C299.018 140.508 293.986 142.189 289.652 142.92C287.534 143.269 285.395 143.269 283.332 143.771C280.439 143.291 275.996 142.964 273.398 142.298C272.536 142.079 270.407 140.344 268.988 140.464C269.665 137.211 270.484 133.991 272.285 131.153C272.503 130.803 273.005 130.934 273.027 130.902V130.891Z" fill="#BCAA87"/>
<path d="M342.191 145.604C342.89 154.478 341.143 162.087 330.784 162.152C330.631 160.591 331.352 159.15 331.887 157.742C332.127 157.546 332.17 157.284 332.258 157.011C332.29 156.901 332.225 156.76 332.258 156.639C332.411 156.126 332.913 155.264 332.989 154.806C333.306 155.679 333.982 154.718 334.288 154.445C336.733 152.197 339.68 149.315 340.357 145.975C340.892 145.898 341.482 145.702 342.202 145.604H342.191Z" fill="#709FB7"/>
<path d="M323.797 160.318C326.439 159.205 328.83 157.644 331.318 156.257C332.05 155.853 332.355 155.504 332.257 156.639C332.224 156.749 332.29 156.89 332.257 157.011C331.864 157.152 331.984 157.502 331.886 157.742C331.351 159.161 330.631 160.591 330.783 162.152C330.543 162.152 330.292 162.163 330.052 162.152C327.083 161.988 326.21 161.322 323.797 160.318Z" fill="#1F5781"/>
<path d="M340.357 145.965C339.68 149.305 336.733 152.187 334.288 154.436C333.993 154.708 333.305 155.669 332.989 154.796C333.414 152.482 333.535 149.458 333.72 147.067C335.936 146.849 338.152 146.281 340.346 145.965H340.357Z" fill="#C4E2E6"/>
<path d="M319.748 157.742C320.697 158.212 321.2 159.587 321.953 159.947C321.865 161.901 322.477 163.833 320.861 165.296C318.351 167.578 314.639 165.733 314.224 162.523C313.788 159.129 316.353 156.05 319.748 157.742Z" fill="#C4E2E6"/>
<path d="M331.897 157.743C331.984 157.503 331.875 157.143 332.268 157.012C332.181 157.285 332.148 157.558 331.897 157.743Z" fill="#527A92"/>
<path d="M325.82 316.306C323.168 318.533 324.465 318.993 321.397 320.51C319.269 321.569 325.924 329.357 323.545 329.466C313.644 329.925 291.714 332.911 286.453 324.691C285.219 322.77 280.853 313.011 280.918 311.134C280.929 310.675 282.414 307.64 282.698 307.455C283.363 307.029 283.625 307.629 283.975 308.044C286.704 311.33 287.959 316.843 290.983 320.532C299.333 330.717 307.239 304.338 320.654 302.253C346.929 298.16 353.864 289.176 372.312 272.595C383.84 262.236 404.499 253.124 412.844 236.832C412.844 240.408 412.563 247.022 408.076 253.124C398.141 266.635 380.26 274.119 373.902 280.543C359.1 295.497 354.033 299.616 334.464 310.228C333.252 311.33 331.822 312.498 330.589 313.524L325.82 316.306Z" fill="#B75D20"/>
<path d="M466.776 315.93C466.309 315.691 465.843 315.452 465.376 315.212C448.136 306.743 438.589 326.627 428.199 335.495C415.241 346.549 400.987 345.064 384.781 342.218C364.496 338.646 344.806 331.542 324.192 329.926C310.399 328.851 286.568 331.187 276.423 321.301C272.848 317.816 272.5 313.066 270.304 308.934C274.003 309.092 278.961 307.959 282.636 307.31C284.273 308.037 286.163 307.852 287.921 307.846C297.421 307.825 306.185 305.637 315.84 307.483C346.572 313.345 391.649 344.374 420.801 323.329C434.044 313.763 441.407 301.876 461.154 309.755C463.688 310.769 468.149 312.796 466.78 315.945L466.776 315.93Z" fill="#EC8A3B"/>
<path d="M230.601 216.927C227.361 216.927 224.77 209.8 223.906 206.236C230.601 203.968 230.601 212.067 231.897 213.363C233.193 214.659 269.8 212.067 267.964 214.227C266.128 216.387 234.596 216.927 230.493 216.927H230.601Z" fill="#B75D20"/>
</svg>
