<svg width="270" height="291" viewBox="0 0 270 291" fill="none" xmlns="http://www.w3.org/2000/svg">
<path d="M184.272 187.04C182.799 188.276 180.866 190.076 179.163 190.919C177.981 191.507 174.969 192.289 173.648 192.349C168.151 192.604 155.975 184.113 153.054 179.549C152.369 178.483 149.945 173.064 149.981 172.022C149.987 171.767 150.811 170.083 150.969 169.98C151.339 169.743 151.484 170.077 151.678 170.307C153.193 172.131 153.89 175.192 155.569 177.24C160.205 182.895 163.522 176.332 170.97 175.174C185.558 172.902 197.314 164.895 207.557 155.689C213.957 149.937 221.145 147.398 226.557 140.477C226.29 141.919 225.199 143.319 224.302 144.452C219.787 150.21 215.453 151.817 210.241 157.083C202.023 165.386 199.21 170.307 185.09 179.549C182.944 176.132 184.951 186.47 184.266 187.04H184.272Z" fill="#527A92"/>
<path d="M259.158 175.407C257.859 178.389 253.644 178.599 251.26 180.88C243.546 188.281 238.305 201.434 225.817 203.25C211.636 205.307 197.44 195.414 183.051 194.275C173.637 193.53 162.867 195.406 154.757 189.723C154.666 189.304 154.498 188.431 154.414 188.154C168.079 185.445 183.275 186.156 196.763 189.998C208.748 193.413 224.4 202.627 235.534 193.082C240.702 188.657 243.062 182.192 247.86 177.874C250.884 175.156 254.268 174.561 258.375 175.005C258.634 175.138 258.893 175.271 259.152 175.404L259.158 175.407Z" fill="#527A92"/>
<path d="M258.381 175.009C254.28 174.568 250.89 175.16 247.866 177.878C243.068 182.196 240.705 188.666 235.54 193.086C224.401 202.627 208.754 193.417 196.769 190.001C183.281 186.16 168.085 185.449 154.42 188.157C152.68 182.231 148.121 177.107 144.789 171.784C144.528 171.375 143.857 170.555 144.1 170.079C145.385 170.67 148.648 171.453 150.072 171.515C151.292 173.809 151.479 176.443 153.47 178.381C159.103 183.869 172.334 182.573 179.992 183.169C191.437 184.067 202.375 188.014 213.631 189.994C222.629 191.574 230.543 192.399 237.737 186.262C243.515 181.335 248.812 170.301 258.378 175.001L258.381 175.009Z" fill="#9772BD"/>
<path d="M2.2594 143.338C7.65333 143.902 13.4655 148.841 16.4351 153.162C23.5867 163.562 23.6533 175.369 35.0836 183.332C47.6957 192.12 70.0593 192.272 84.1744 187.453L81.7259 189.805C78.635 191.714 75.3381 195.975 72.326 197.665C68.3684 199.884 58.0532 198.617 53.4593 198.047C35.1866 195.781 26.326 191.756 18.5624 174.52C15.423 167.55 13.5382 158.102 7.67758 152.932C5.6594 151.156 2.48969 149.75 1.07151 147.49C0.538177 146.635 -0.316372 144.914 0.119991 143.956C0.265445 143.641 0.707896 143.508 0.829108 143.344C1.29577 143.375 1.79879 143.296 2.2594 143.344V143.338Z" fill="#527A92"/>
<path d="M89.69 56.3251C90.0718 56.7372 94.3445 57.6706 95.1991 57.8645C100.763 59.1069 109.157 60.8827 114.714 61.2281C116.993 61.3675 119.169 60.2766 119.496 57.8463C119.823 55.3918 120.035 47.3979 119.211 45.3009C119.102 45.0221 118.732 44.4039 118.393 44.4888C115.829 48.0524 119.417 55.0584 114.199 56.8403C112.272 57.4948 107.411 56.513 105.114 56.3372C100.66 55.9978 94.987 55.3433 90.6112 55.7251C90.387 55.7433 89.3082 55.9191 89.6961 56.3372L89.69 56.3251ZM85.3991 90.6402C95.8112 104.561 116.654 100.937 123.138 85.3796C123.496 84.519 124.599 81.8039 124.617 81.0402C127.235 78.5251 130.86 74.3008 124.314 74.5069C118.963 74.6766 113.357 75.7312 107.969 75.9312C103.072 76.113 96.3081 75.2705 91.4839 74.2402C88.1627 73.5312 81.6476 70.6099 78.5991 71.2827C77.3506 71.5554 77.5506 72.9796 77.6597 73.9736C78.0657 77.6342 81.6294 87.513 84.2657 90.0342C84.5991 90.3493 84.9203 90.5978 85.3991 90.6402ZM98.7809 170.907V171.113C98.9142 171.046 98.9142 170.98 98.7809 170.907Z" fill="#BB9FD9"/>
<path fill-rule="evenodd" clip-rule="evenodd" d="M11.1507 141.695C7.38099 140.418 3.44216 139.86 0.842026 143.32C1.30172 143.346 1.79517 143.271 2.24767 143.319C10.0901 141.531 15.9568 146.804 19.981 152.852C25.9567 161.834 28.1022 172.579 37.3991 179.149C52.3203 189.695 81.7748 187.47 95.096 174.98C96.1809 173.961 96.993 172.804 98.0112 171.767C98.2112 171.567 98.2112 171.192 98.6657 171.301C99.0536 171.725 95.7263 176.683 95.2415 177.367C92.8657 180.689 88.0233 186.113 84.1627 187.434L81.7142 189.786C78.6233 191.701 75.593 193.919 72.3143 197.646C68.4355 204.743 65.1749 212.792 63.9749 220.858C62.7022 229.416 65.0355 234.949 65.3809 242.876C65.9749 256.301 53.3931 259.834 43.9931 265.01C41.5264 266.367 37.0173 269.113 38.1628 272.543C38.4416 273.373 38.7749 273.185 39.0234 273.416C39.5931 269.882 43.7688 267.658 46.8537 266.64C59.69 262.404 69.4415 258.719 75.187 248.81C78.7506 242.67 77.3264 235.307 78.7506 228.476C80.8476 218.434 84.2415 210.295 92.9748 204.501C99.9324 199.882 104.932 197.422 111.338 191.61C111.593 191.379 111.751 191.101 112.157 191.101V193C114.005 197.358 119.318 207.473 122.5 211C127.518 216.564 130.433 220.503 135.5 226C141.142 232.127 140.624 236.985 140 245.5C139.846 247.615 135.272 254.423 123.5 263.158C121.401 264.716 119.073 266.335 116.5 268C99.5 279 104 296.5 112 286C120 275.5 146.11 268.825 150.805 260.913C155.5 253 158.096 244.537 157.072 234.531C155.932 223.385 151.09 212.931 145.66 203.361C144.69 201.658 142.551 199.567 141.284 197.628C137.92 192.482 132.647 183.373 132.587 177.222C132.581 176.731 132.641 176.149 132.787 175.683C132.854 175.458 132.647 175.319 133.096 175.386C137.199 178.325 141.096 181.573 145.144 184.579C151.157 189.046 157.229 193.858 163.369 198.222C172.144 204.458 179.69 206.779 185.987 216.452C193.544 228.07 192.441 242.034 205.987 249.555C216.302 255.282 228.326 254.082 239.623 254.422C241.599 254.482 248.175 253.173 246.047 250.143C244.35 247.731 237.417 248.998 234.817 249.113C229.211 249.367 220.744 247.325 215.787 244.658C205.053 238.895 203.963 228.628 199.678 218.489C197.738 213.895 194.811 208.628 191.617 204.798C191.344 204.476 190.787 203.779 190.593 203.573C186.363 199.143 180.235 196.701 175.005 193.525C174.599 193.276 172.735 191.721 170.97 190.839C164.792 187.309 158.478 185.695 155.557 181.131C154.878 180.064 152.691 178.644 152.722 177.601C152.728 177.347 152.564 174.483 152.722 174.38C153.091 174.143 153.243 174.477 153.431 174.707C154.94 176.531 153.878 175.179 155.557 177.228C160.193 182.889 173.635 179.537 180.896 174.38C195.374 166.616 197.28 164.902 207.366 155.837L207.544 155.676C213.944 149.925 221.132 147.386 226.544 140.464C227.708 138.973 228.278 137.234 228.69 135.361C230.096 128.986 228.593 122.252 224.502 117.18C221.805 116.392 216.508 112.67 213.878 111.052C214.356 114.998 217.617 118.246 218.484 122.077C221.938 137.301 210.508 138.216 202.241 146.052C195.629 152.313 184.981 155.665 176.927 160.393C173.176 162.594 163.369 162.599 163.369 152.891C163.369 144.728 171.852 137.549 176.927 133.477C185.987 126.206 193.023 120.543 198.563 110.028C197.884 110.155 197.229 110.713 196.72 111.149C195.563 112.137 193.066 114.44 192.126 115.543C190.902 116.986 190.32 119.155 189.132 120.719C185.569 125.422 177.017 128.234 171.357 126.925C169.193 126.422 166.447 125.301 165.066 123.513C162.635 122.701 159.126 119.913 158.526 117.386C158.066 117.428 157.781 116.755 157.544 116.428C155.266 113.283 152.835 110.174 150.72 106.913C149.587 105.167 148.26 103.271 147.702 101.252C136.611 89.3311 138.708 69.9918 150.969 59.7918C150.993 59.1372 150.514 58.6281 150.405 58.01C149.993 55.6342 149.847 47.5554 150.617 45.4463C151.472 43.1009 152.181 45.713 152.381 46.8463C152.993 50.3554 151.441 54.7251 155.26 56.7312C174.429 45.4342 200.884 59.3797 202.241 81.5493C202.332 83.0463 202.12 84.6645 202.241 86.1432C202.526 89.5978 205.563 90.8948 205.102 95.3311C205.102 95.3796 205.284 95.5675 205.253 95.8038C205.12 96.8523 204.193 97.2948 205.296 98.5129C205.441 98.6766 206.423 99.3978 206.532 99.422C207.308 99.6099 207.714 99.0887 208.169 99.016C208.884 97.3493 210.447 97.7857 210.211 99.6281C213.272 101.137 217.163 103.567 220.223 105.349L220.129 105.087C218.928 101.741 217.554 97.9145 214.69 95.6645C212.314 93.7978 208.763 92.7554 206.132 94.7311C216.235 67.119 202.308 36.313 180.896 18.3494C152.381 -5.57177 110.993 -6.09298 81.6294 16.7191C52.6052 39.2767 47.9446 74.0887 64.4597 106.174C73.2112 123.18 105.187 158.961 74.2173 171.064C67.5082 173.689 58.2658 175.501 51.1991 173.755C33.8598 169.476 27.8719 147.361 11.1507 141.695ZM95.1991 57.8645C94.3445 57.6706 90.0718 56.7372 89.69 56.3251L89.6961 56.3372C89.3082 55.9191 90.387 55.7433 90.6112 55.7251C94.987 55.3433 100.66 55.9978 105.114 56.3372C107.411 56.513 112.272 57.4948 114.199 56.8403C119.417 55.0584 115.829 48.0524 118.393 44.4888C118.732 44.4039 119.102 45.0221 119.211 45.3009C120.035 47.3979 119.823 55.3918 119.496 57.8463C119.169 60.2766 116.993 61.3675 114.714 61.2281C109.157 60.8827 100.763 59.1069 95.1991 57.8645ZM123.138 85.3796C116.654 100.937 95.8112 104.561 85.3991 90.6402C84.9203 90.5978 84.5991 90.3493 84.2657 90.0342C81.6294 87.513 78.0657 77.6342 77.6597 73.9736C77.5506 72.9796 77.3506 71.5554 78.5991 71.2827C81.6476 70.6099 88.1627 73.5312 91.4839 74.2402C96.3081 75.2705 103.072 76.113 107.969 75.9312C113.357 75.7312 118.963 74.6766 124.314 74.5069C130.86 74.3008 127.235 78.5251 124.617 81.0402C124.599 81.8039 123.496 84.519 123.138 85.3796ZM98.7809 170.907V171.113C98.9142 171.046 98.9142 170.98 98.7809 170.907Z" fill="#BB9FD9"/>
<path d="M132.587 177.24C133.096 177.125 133.006 177.506 133.163 177.779C133.636 178.597 134.127 179.391 134.672 180.161C136.466 182.7 142.398 189.653 144.495 191.059C145.598 191.798 145.284 192.379 145.763 192.555C151.618 197.403 159.254 199.597 165.89 203.27C173.157 207.294 182.672 214.682 186.284 222.3C190.636 231.482 189.315 243.573 198.181 250.234C207.909 257.543 224.502 257.27 235.957 255.252C235.824 255.646 235.46 255.652 235.145 255.767C218.569 261.943 199.678 263.7 185.909 250.658C176.163 241.434 179.848 232.1 173.66 222.264C167.763 212.888 158.812 211.543 150.309 205.585L145.672 203.379C144.703 201.676 142.569 199.585 141.296 197.646C137.927 192.494 132.66 183.391 132.6 177.24H132.587Z" fill="#527A92"/>
<path d="M131.157 215.434C132.678 218.452 134.308 221.446 136.023 224.355C140.708 232.301 145.939 237.392 141.733 247.349C140.696 249.804 137.175 253.889 134.842 255.168C134.108 255.568 133.296 255.628 132.793 255.877C133.993 250.707 137.957 245.471 137.496 240.04C137.296 237.683 135.139 234.477 133.896 232.404C130.623 226.943 126.678 220.707 122.945 215.574C119.987 211.501 116.623 207.755 113.084 204.192C112.848 203.962 112.587 203.992 112.29 204.01C110.569 204.113 107.399 204.901 105.617 205.325C96.7689 207.422 92.0962 216.483 91.078 218.774C88.0962 225.501 85.2902 233.313 83.8235 240.525C81.569 251.622 82.9871 259.943 70.5871 264.671C63.0235 267.549 54.575 268.422 46.8296 270.731L41.8842 273.034C43.7508 270.949 44.3993 269.961 47.1993 268.852C53.266 266.44 59.9447 266.089 66.2659 263.204C79.6295 257.107 78.3144 250.022 80.5871 237.289C81.4417 232.525 82.7811 226.404 84.3689 221.871C88.1265 211.131 96.7932 206.689 105.187 200.204C106.969 198.828 111.375 195.222 112.042 193.168C112.26 192.495 112.133 191.822 112.157 191.137C112.175 190.665 112.169 190.18 112.157 189.707C113.314 191.034 112.599 192.762 112.963 194.107C115.054 201.725 125.302 210.265 131.151 215.44L131.157 215.434Z" fill="#527A92"/>
<path d="M235.951 255.258C237.182 255.04 238.456 254.961 239.616 254.446C228.326 254.106 216.296 255.306 205.981 249.579C192.436 242.058 193.539 228.1 185.981 216.476C179.69 206.803 172.139 204.482 163.363 198.246C157.218 193.882 151.151 189.064 145.139 184.603C141.09 181.597 137.193 178.349 133.09 175.409C132.642 175.343 132.854 175.482 132.781 175.706C132.636 176.173 132.581 176.749 132.581 177.246C133.09 177.131 132.999 177.512 133.157 177.785C133.63 178.603 134.121 179.397 134.666 180.167C136.334 183.735 142.596 189.959 145.598 192.603C148.405 195.87 159.248 199.603 165.884 203.276C173.151 207.3 182.666 214.694 186.278 222.306C190.63 231.482 189.308 243.579 198.175 250.24C207.902 257.549 224.496 257.27 235.951 255.258Z" fill="#9772BD"/>
<path d="M112.048 188.69C112.236 189.599 112.484 191.847 112.048 193.162C111.169 195.829 106.975 198.823 105.193 200.199C96.7931 206.684 88.1325 211.126 84.3749 221.865C82.7871 226.399 81.4477 232.52 80.5931 237.284C78.3204 250.011 79.6295 257.102 66.2719 263.199C59.9507 266.083 53.2719 266.435 47.2053 268.847C44.4053 269.956 43.7568 270.944 41.8902 273.029C41.4356 273.538 40.8295 274.393 40.1386 274.465C39.9689 274.483 39.2962 273.683 39.0295 273.435C39.5992 269.902 43.9083 268.029 46.8599 266.659C56.5629 262.156 67.2962 260.696 73.0416 250.793C76.5992 244.659 77.3325 235.326 78.7568 228.496C80.8477 218.453 84.2416 210.314 92.981 204.52C99.9386 199.908 104.939 197.447 111.345 191.629C111.599 191.399 111.908 190.065 112.054 188.684L112.048 188.69Z" fill="#9772BD"/>
<path d="M210.211 99.6286C213.271 101.132 217.156 103.562 220.223 105.35C222.89 106.901 226.241 108.665 228.665 110.495C229.381 111.035 230.49 111.798 230.756 112.695C231.884 116.495 227.574 118.095 224.514 117.198C221.817 116.41 216.526 112.689 213.89 111.071C211.059 109.332 208.205 107.562 205.405 105.768C204.993 105.501 204.096 104.586 203.878 104.538L206.532 99.4346C207.302 99.6225 207.714 99.1013 208.168 99.0286C208.653 98.9498 209.726 99.4043 210.211 99.6407V99.6286Z" fill="#527A92"/>
<path d="M202.247 86.1483L201.041 91.9907C201.011 92.2998 200.95 92.6634 201.053 92.9543C201.181 93.324 204.502 95.021 205.108 95.3362C205.108 95.3786 205.29 95.5725 205.259 95.8089C205.126 96.8574 204.199 97.2937 205.302 98.518C205.447 98.6755 206.429 99.3968 206.538 99.4271L203.884 104.53C202.793 104.269 201.544 105.045 200.817 104.936C200.581 104.9 199.059 104.069 198.714 103.876C198.096 103.53 195.084 101.276 194.829 101.294C194.096 101.354 192.363 103.676 191.763 104.251C188.884 107.009 186.041 109.076 182.235 110.451C181.526 110.706 181.119 110.972 179.581 111.269C178.043 111.567 176.229 111.779 175.187 111.882C171.441 112.245 167.09 111.827 163.441 110.863C162.581 110.633 161.211 110.172 160.375 109.845C156.138 108.16 150.811 104.603 147.708 101.269C136.623 89.3483 138.72 70.0089 150.975 59.8089C152.084 58.8877 154.029 57.4695 155.266 56.7483C174.435 45.4514 200.89 59.3968 202.247 81.5665C202.338 83.0634 202.126 84.6816 202.247 86.1604V86.1483ZM165.272 56.7362C151.12 59.4029 140.944 72.8877 143.92 87.3786C144.581 90.5907 146.041 93.2756 147.502 96.1543C147.193 96.3301 146.472 96.6877 146.472 97.0695C146.472 98.1846 151.447 102.5 152.544 103.269C163.387 110.894 179.908 110.554 189.993 101.779C211.381 83.1665 191.756 51.7544 165.272 56.7423V56.7362Z" fill="#1F5781"/>
<path d="M2.26013 143.336C10.1025 141.554 15.9692 146.821 19.9934 152.869C25.9692 161.851 28.1086 172.591 37.4116 179.166C52.3328 189.712 81.7873 187.488 95.1085 174.997C96.1933 173.978 97.0115 172.821 98.0236 171.784C98.2236 171.578 98.2236 171.209 98.6782 171.318C99.0661 171.748 95.7388 176.706 95.2539 177.385C92.8842 180.7 88.0418 186.13 84.1751 187.451C70.06 192.269 47.6964 192.118 35.0843 183.33C23.6601 175.366 23.5934 163.56 16.4359 153.16C13.4662 148.839 7.648 143.9 2.26013 143.336Z" fill="#9772BD"/>
<path d="M86.6236 78.386C86.4054 86.0285 90.7206 93.0224 98.3145 94.986C108.278 97.5678 115.963 90.5375 115.836 80.6345C117.763 80.4163 123.06 78.986 124.49 80.4163C124.708 80.6345 124.63 80.78 124.624 81.0466C124.599 81.8103 123.502 84.5254 123.145 85.386C116.66 100.944 95.8175 104.568 85.4054 90.6466C84.7448 89.7678 83.866 88.2951 83.3267 87.3133C81.466 83.9194 80.2236 79.9436 79.4781 76.1497C81.4175 76.0224 83.2357 77.0285 85.0478 77.6285C85.5084 77.78 86.3873 78.3315 86.6297 78.3921L86.6236 78.386Z" fill="#FEFDFD"/>
<path d="M124.617 81.0412C124.623 80.7806 124.702 80.6291 124.484 80.4109C123.06 78.9806 117.763 80.4109 115.829 80.6291C114.951 80.7321 113.69 80.9927 112.969 81.0351C112.345 81.0715 110.684 81.0351 109.902 81.0351C103.714 81.0109 92.5506 79.9079 86.6173 78.3806C86.3688 78.32 85.4961 77.7685 85.0355 77.617C83.2234 77.017 81.4112 76.0109 79.4658 76.1382C80.2112 79.9321 81.4476 83.9079 83.3143 87.3018C83.8536 88.2836 84.7324 89.7563 85.393 90.6351C84.9142 90.5988 84.593 90.3503 84.2597 90.0291C81.6233 87.5018 78.0537 77.623 77.6537 73.9685C77.5446 72.9745 77.3446 71.5503 78.5931 71.2776C81.6476 70.6048 88.1567 73.5261 91.4779 74.2351C96.2961 75.2654 103.066 76.1079 107.963 75.9261C113.351 75.7261 118.957 74.6715 124.308 74.5018C130.86 74.2958 127.229 78.52 124.611 81.0351L124.617 81.0412Z" fill="#9772BD"/>
<path d="M89.6898 56.3261C89.3019 55.9079 90.3807 55.7321 90.605 55.7139C94.9807 55.3382 100.653 55.9867 105.108 56.3261C107.405 56.5018 112.266 57.4897 114.193 56.8291C119.411 55.0473 115.829 48.0473 118.387 44.4776C118.726 44.3988 119.096 45.017 119.205 45.2897C120.029 47.3867 119.817 55.3806 119.49 57.8351C119.163 60.2715 116.987 61.3624 114.708 61.217C109.15 60.8715 100.756 59.0957 95.1929 57.8533C94.3323 57.6594 90.0595 56.7261 89.6838 56.3139L89.6898 56.3261Z" fill="#9772BD"/>
<path d="M155.259 56.7382C154.023 57.4654 152.078 58.8775 150.968 59.7988C150.993 59.1382 150.514 58.6351 150.405 58.0169C149.993 55.6472 149.847 47.5624 150.617 45.4533C151.472 43.1018 152.181 45.72 152.381 46.8533C152.993 50.3624 151.447 54.7321 155.259 56.7382Z" fill="#9772BD"/>
<path d="M205.108 95.3383C204.502 95.0231 201.181 93.3261 201.053 92.9564C200.956 92.6595 201.011 92.3019 201.041 91.9928L202.247 86.1504C202.532 89.6049 205.568 90.9019 205.108 95.3383Z" fill="#9772BD"/>
<path d="M98.7806 170.906C98.9144 170.973 98.9144 171.04 98.7806 171.113V170.906Z" fill="#9772BD"/>
<path d="M147.502 96.1566C147.86 95.9566 148.508 96.2778 148.538 95.2475C147.993 93.7263 147.635 92.2232 147.302 90.6475C149.163 91.2354 149.538 95.3626 151.799 94.7323C153.187 96.9808 155.563 99.4717 157.787 100.896C158.199 101.157 158.835 101.199 158.951 101.266C172.357 109.847 192.435 101.229 194.29 84.9263C194.484 83.2051 194.441 82.5202 194.29 80.8414C194.035 78.0657 193.696 76.8414 192.654 74.3081C191.781 72.1869 191.217 71.0414 189.793 69.2051C188.92 68.0778 188.241 67.7566 187.544 66.9566C186.532 65.799 186.532 65.2657 184.89 64.3021C185.326 64.1748 184.648 63.8051 184.545 63.7263C178.757 59.3566 172.599 57.5809 165.278 58.7869V56.7445C191.763 51.7566 211.387 83.1687 189.999 101.781C179.914 110.557 163.393 110.896 152.551 103.272C151.454 102.502 146.478 98.1929 146.478 97.0717C146.478 96.696 147.199 96.3323 147.508 96.1566H147.502Z" fill="#527A92"/>
<path d="M160.369 109.841L160.368 109.844C161.204 110.177 162.564 110.636 163.429 110.86L163.435 110.866C167.084 111.829 171.436 112.247 175.181 111.884C175.546 111.848 176.098 111.736 176.694 111.614L176.695 111.614C178.192 111.344 181.438 110.705 182.442 110.312C186.248 108.937 188.883 107.011 191.756 104.254C191.925 104.092 192.183 103.792 192.483 103.444L192.483 103.444C193.251 102.552 194.295 101.34 194.823 101.296C194.983 101.281 196.191 102.133 197.236 102.87C197.886 103.329 198.473 103.743 198.708 103.878C199.059 104.078 200.58 104.902 200.811 104.938H200.817C200.289 106.732 199.429 108.411 198.568 110.041C197.901 110.166 197.264 110.707 196.753 111.139L196.726 111.163C195.568 112.144 193.065 114.454 192.132 115.557C191.487 116.317 191.018 117.279 190.547 118.248C190.123 119.117 189.697 119.993 189.138 120.732C185.568 125.429 177.023 128.241 171.362 126.938C163.028 125.766 157.319 117.6 155.507 113.663C153.864 111.447 152.214 109.221 150.727 106.926C150.613 106.751 150.497 106.574 150.381 106.396L150.381 106.396C149.335 104.799 148.21 103.081 147.708 101.266C150.812 104.599 156.139 108.157 160.375 109.841H160.369Z" fill="#9772BD"/>
<path d="M165.272 56.7365V58.7789C148.921 61.4638 144.157 75.8517 147.296 90.6395C147.63 92.2153 147.987 93.7244 148.533 95.2395C148.509 96.2698 147.854 95.9486 147.496 96.1486C146.036 93.2698 144.575 90.585 143.915 87.3729C140.939 72.882 151.121 59.3971 165.266 56.7305L165.272 56.7365Z" fill="#709FB7"/>
<path d="M109.914 81.0413C108.484 85.3079 114.411 85.3079 112.981 81.0413C113.702 80.9988 114.963 80.7322 115.842 80.6352C115.963 90.5443 108.278 97.5685 98.3204 94.9867C90.7326 93.0231 86.4174 86.0291 86.6295 78.3867C92.5629 79.914 103.733 81.0231 109.914 81.0413ZM107.811 85.7806C105.26 86.3443 106.49 91.2837 109.151 89.9806C111.302 88.9261 110.145 85.2655 107.811 85.7806Z" fill="#262626"/>
<path d="M112.975 81.041C114.405 85.3077 108.478 85.3077 109.908 81.041C110.684 81.041 112.345 81.0774 112.975 81.041Z" fill="#FEFDFD"/>
<path d="M184.884 64.2957C186.527 65.2593 186.527 65.7927 187.539 66.9502C186.411 67.0169 185.781 68.3866 185.09 69.1017C182.836 71.4472 180.363 73.5623 178.139 75.9381L188.975 74.6229C189.563 72.8593 188.096 70.6836 189.781 69.1987C191.205 71.0411 191.769 72.1805 192.642 74.3017C192.066 74.6048 189.29 74.3805 189.169 74.5078C189.114 74.5623 189.199 75.6229 189.12 75.9926C188.751 77.7442 185.06 79.8775 184.06 81.4532C183.478 81.5078 182.878 81.8048 182.223 81.8593C180.945 81.9745 179.63 82.0896 178.345 82.0654C176.345 82.029 173.878 81.8169 171.805 81.6593C171.811 81.2532 172.054 81.0835 172.32 80.8472C173.454 79.8169 174.733 78.8896 175.896 77.8835L177.527 76.1442C176.181 76.0048 174.872 76.3623 173.539 76.3563C172.533 76.3502 171.145 76.0169 170.175 75.9381C172.836 74.3078 176.048 69.6714 172.611 67.2714C168.569 64.4472 157.533 67.4048 153.624 70.0169C159.254 61.4108 170.484 59.223 179.927 62.2048C181.314 62.6411 183.648 63.5805 184.878 64.3017L184.884 64.2957Z" fill="#A287BC"/>
<path d="M151.787 78.9982C151.738 84.0952 152.975 88.3982 156.284 92.271C157.375 93.5497 158.551 94.7134 159.975 95.6225C161.635 96.6831 162.696 97.0528 164.454 97.58C169.781 99.1679 175.326 98.6528 179.678 94.9316C181.102 93.7134 182.751 91.8407 183.248 90.0225C183.381 90.0285 183.52 90.0225 183.654 90.0225C189.399 89.9861 190.375 85.7619 189.987 80.8346C191.393 80.6528 192.866 80.4104 194.278 80.8346C194.429 82.5134 194.472 83.1982 194.278 84.9195C190.302 97.1982 176.769 105.356 163.999 102.016C163.005 101.756 160.593 101.053 159.751 100.647C157.484 99.5558 153.538 96.2528 151.781 94.3134C148.496 90.6831 148.399 82.4891 149.332 77.974C150.126 77.9073 151.302 78.871 151.781 78.9922L151.787 78.9982Z" fill="#C4E2E6"/>
<path d="M184.884 64.2942C183.654 63.573 181.32 62.6336 179.932 62.1973C170.49 59.2155 159.254 61.4094 153.629 70.0094C152.69 70.6397 152.187 71.7912 151.587 72.6639C151.575 72.6821 151.296 72.6094 151.175 72.8033C150.175 74.3791 149.714 76.173 149.345 77.973C148.411 82.4881 148.508 90.6821 151.793 94.3124C151.817 94.4336 151.751 94.6578 151.793 94.7184C149.539 95.3487 149.163 91.2215 147.296 90.6336C144.157 75.8457 148.92 61.4579 165.272 58.773C172.593 57.573 178.751 59.3427 184.538 63.7124C184.642 63.7912 185.32 64.1609 184.884 64.2882V64.2942Z" fill="#1F5781"/>
<path d="M194.278 84.9258C192.423 101.229 172.344 109.847 158.938 101.265C159.096 100.914 159.35 100.665 159.756 100.653C160.599 101.059 163.011 101.762 164.005 102.023C176.775 105.362 190.308 97.1985 194.284 84.9258H194.278Z" fill="#A287BC"/>
<path d="M187.538 66.9492C188.235 67.7432 188.914 68.0704 189.787 69.1977C188.102 70.6825 189.569 72.8583 188.981 74.6219L178.144 75.9371C180.363 73.5613 182.841 71.4462 185.096 69.1007C185.781 68.3856 186.411 67.0159 187.544 66.9492H187.538Z" fill="#B592D8"/>
<path d="M192.642 74.301C193.684 76.8343 194.023 78.0586 194.278 80.8343C192.866 80.4101 191.399 80.6525 189.987 80.8343C189.593 80.8889 189.266 80.9979 188.963 81.0404C187.745 81.2161 186.514 81.5313 185.284 81.6525C185.223 81.6525 184.599 81.3979 184.06 81.4464C185.06 79.8707 188.751 77.7373 189.12 75.9858C189.199 75.6161 189.114 74.5495 189.169 74.501C189.29 74.3798 192.072 74.598 192.642 74.2949V74.301Z" fill="#917CA6"/>
<path d="M159.757 100.651C159.351 100.664 159.096 100.912 158.939 101.264C158.83 101.191 158.187 101.155 157.775 100.894C155.545 99.4697 153.175 96.9788 151.787 94.7303C151.745 94.6636 151.811 94.4394 151.787 94.3242C153.545 96.2636 157.49 99.5666 159.757 100.658V100.651Z" fill="#B592D8"/>
<path d="M107.811 85.7779C110.139 85.2628 111.302 88.9234 109.151 89.9779C106.49 91.2809 105.26 86.3415 107.811 85.7779Z" fill="#FEFDFD"/>
<path d="M171.811 81.6519C173.878 81.8095 176.351 82.0216 178.351 82.058C178.43 82.7247 178.09 83.2641 178.187 83.9428C178.218 84.161 178.89 85.4822 178.969 85.5307C178.581 86.2944 177.478 86.6398 177.539 87.5731C175.66 86.6337 174.23 88.3428 174.472 90.2277L164.46 97.5792C162.702 97.058 161.648 96.6822 159.981 95.6216C158.557 94.7125 157.381 93.5489 156.29 92.2701C156.702 92.3186 156.963 92.1368 157.296 91.9489C159.072 90.9731 161.193 89.3428 162.89 88.1428C165.721 86.1428 168.684 84.0156 171.199 81.6459C171.399 81.6641 171.611 81.6277 171.811 81.6459V81.6519Z" fill="#7B879F"/>
<path d="M170.175 75.9388C169.908 75.9145 169.623 75.963 169.356 75.9388C163.841 75.4236 157.805 74.5872 152.478 73.1085C152.15 73.0176 151.787 73.0115 151.587 72.6721C152.187 71.7994 152.69 70.6479 153.629 70.0176C157.532 67.4054 168.575 64.4539 172.617 67.2721C176.053 69.6721 172.841 74.3085 170.181 75.9388H170.175Z" fill="#B592D8"/>
<path d="M170.175 75.9367C171.145 76.0155 172.533 76.3488 173.539 76.3549C174.878 76.367 176.181 76.0034 177.526 76.1427L175.896 77.8821C174.733 78.8882 173.454 79.8094 172.32 80.8458C172.054 81.0882 171.811 81.2579 171.805 81.6579C171.605 81.6397 171.393 81.6761 171.193 81.6579C166.66 81.2882 161.848 80.567 157.302 79.8215C158.448 79.5427 159.636 79.5427 160.811 79.3488C163.217 78.9488 166.011 78.0155 168.199 76.9306C168.642 76.7124 169.351 76.5488 169.351 75.9367C169.617 75.9609 169.896 75.9124 170.169 75.9367H170.175Z" fill="#917CA6"/>
<path d="M184.066 81.4533C184.605 81.4048 185.229 81.6654 185.29 81.6593C185.181 82.9866 185.114 84.6654 184.884 85.9502C184.835 86.2048 184.563 86.6896 184.478 86.9684C184.532 86.3381 184.363 86.526 183.957 86.7563C182.575 87.526 181.248 88.3927 179.781 89.0108C179.551 88.9139 179.06 88.9502 178.757 88.8048C178.332 88.6048 178.06 87.8412 177.532 87.5805C177.466 86.6472 178.575 86.3018 178.963 85.5381C179.066 85.6048 180.575 85.5502 180.854 85.4896C182.72 85.1139 182.326 83.2775 182.229 81.8593C182.884 81.7987 183.484 81.5018 184.066 81.4533Z" fill="#527A92"/>
<path d="M182.23 81.8594C182.326 83.2776 182.72 85.1139 180.854 85.4897C180.569 85.5442 179.066 85.6048 178.963 85.5382C178.89 85.4897 178.217 84.1685 178.181 83.9503C178.084 83.2715 178.423 82.7321 178.345 82.0654C179.629 82.0897 180.951 81.9745 182.223 81.8594H182.23Z" fill="#C4E2E6"/>
<path d="M157.302 79.816C161.848 80.5615 166.66 81.2827 171.193 81.6524C168.678 84.0221 165.714 86.1494 162.884 88.1494C161.187 89.3494 159.066 90.9797 157.29 91.9554C156.957 92.1372 156.696 92.319 156.284 92.2766C152.981 88.3978 151.739 84.0948 151.787 79.0039C153.23 79.3736 155.696 79.5554 157.302 79.8221V79.816Z" fill="#527A92"/>
<path d="M179.775 89.0107C181.114 89.5683 181.599 89.938 183.247 90.0289C182.75 91.841 181.102 93.7198 179.678 94.938C175.326 98.6592 169.781 99.1744 164.453 97.5865L174.466 90.235C174.696 92.0168 176.756 93.041 178.15 91.7744C179.047 90.9623 178.702 89.8895 178.756 88.8047C179.06 88.9501 179.544 88.9138 179.781 89.0107H179.775Z" fill="#527A92"/>
<path d="M151.587 72.6719C151.787 73.0113 152.151 73.0173 152.478 73.1082C157.805 74.5931 163.848 75.4234 169.357 75.9385C169.357 76.5507 168.648 76.7082 168.205 76.9325C166.017 78.0113 163.223 78.9446 160.817 79.3507C159.642 79.5446 158.454 79.5446 157.308 79.8234C155.702 79.5567 153.236 79.3749 151.793 79.0052C151.314 78.884 150.133 77.9204 149.345 77.987C149.72 76.181 150.175 74.3931 151.175 72.8173C151.296 72.6234 151.575 72.6961 151.587 72.6779V72.6719Z" fill="#A287BC"/>
<path d="M189.987 80.8398C190.375 85.7671 189.405 89.9913 183.654 90.0277C183.569 89.161 183.969 88.3611 184.266 87.5792C184.399 87.4701 184.424 87.3247 184.472 87.1732C184.49 87.1126 184.454 87.0338 184.472 86.9671C184.557 86.6823 184.836 86.2035 184.878 85.9489C185.054 86.4338 185.43 85.9004 185.599 85.7489C186.957 84.5004 188.593 82.9005 188.969 81.0459C189.266 81.0035 189.593 80.8944 189.993 80.8398H189.987Z" fill="#709FB7"/>
<path d="M179.775 89.01C181.242 88.3918 182.569 87.5251 183.951 86.7554C184.357 86.5312 184.527 86.3373 184.472 86.9676C184.454 87.0282 184.49 87.107 184.472 87.1736C184.254 87.2524 184.32 87.4464 184.266 87.5797C183.969 88.3676 183.569 89.1615 183.654 90.0282C183.52 90.0282 183.381 90.0342 183.248 90.0282C181.599 89.9373 181.114 89.5676 179.775 89.01Z" fill="#1F5781"/>
<path d="M188.969 81.041C188.594 82.8956 186.957 84.4956 185.6 85.744C185.436 85.8956 185.054 86.4289 184.878 85.944C185.115 84.6592 185.181 82.9804 185.284 81.6531C186.515 81.5319 187.745 81.2168 188.963 81.041H188.969Z" fill="#C4E2E6"/>
<path d="M177.527 87.5783C178.054 87.8389 178.333 88.6025 178.751 88.8025C178.702 89.8873 179.042 90.9601 178.145 91.7722C176.751 93.0389 174.69 92.0146 174.46 90.2328C174.218 88.3479 175.642 86.6389 177.527 87.5783Z" fill="#C4E2E6"/>
<path d="M184.272 87.5818C184.321 87.4485 184.26 87.2485 184.478 87.1758C184.43 87.3273 184.411 87.4788 184.272 87.5818Z" fill="#527A92"/>
<path d="M180.898 175.617C179.425 176.853 180.146 177.109 178.443 177.951C177.261 178.539 180.956 182.863 179.635 182.924C174.138 183.178 161.962 184.836 159.041 180.272C158.356 179.206 155.932 173.787 155.968 172.745C155.974 172.49 156.798 170.806 156.956 170.703C157.326 170.466 157.471 170.8 157.665 171.03C159.18 172.854 159.877 175.915 161.556 177.963C166.192 183.618 170.582 168.972 178.03 167.815C192.618 165.542 196.469 160.554 206.711 151.348C213.111 145.597 224.581 140.538 229.214 131.492C229.214 133.478 229.058 137.149 226.567 140.538C221.051 148.039 211.123 152.194 207.593 155.761C199.375 164.064 196.562 166.351 185.697 172.242C185.024 172.854 184.23 173.503 183.546 174.072L180.898 175.617Z" fill="#9772BD"/>
<path d="M259.158 175.408C258.899 175.275 258.64 175.142 258.381 175.009C248.809 170.307 243.508 181.346 237.74 186.27C230.545 192.407 222.631 191.583 213.634 190.003C202.371 188.02 191.439 184.075 179.994 183.178C172.336 182.581 159.105 183.878 153.473 178.39C151.488 176.455 151.294 173.818 150.075 171.524C152.129 171.611 154.882 170.982 156.922 170.622C157.831 171.026 158.88 170.922 159.856 170.919C165.131 170.907 169.997 169.693 175.357 170.718C192.42 173.972 217.447 191.2 233.632 179.516C240.985 174.204 245.073 167.605 256.036 171.979C257.443 172.542 259.92 173.668 259.161 175.416L259.158 175.408Z" fill="#BB9FD9"/>
<path d="M123.049 119.444C121.25 119.444 119.811 115.487 119.331 113.508C123.049 112.249 123.049 116.746 123.768 117.465C124.488 118.185 144.812 116.746 143.793 117.945C142.774 119.144 125.267 119.444 122.989 119.444H123.049Z" fill="#9772BD"/>
<path d="M136.364 225.784C142.007 231.911 141.488 236.769 140.864 245.284C140.71 247.399 136.136 254.207 124.364 262.942C131.407 260.828 145.597 254.169 146.009 244.442C146.524 232.284 143.864 226.784 140.864 223.284C138.342 220.342 119.96 205.738 114 197C116.423 201.841 120.988 208.15 123.364 210.784C128.382 216.348 131.298 220.287 136.364 225.784Z" fill="#9772BD"/>
</svg>
